<svg width="120" height="120" viewBox="0 0 120 120" fill="none" xmlns="http://www.w3.org/2000/svg">
<rect width="120" height="120" fill="#D3D0CB"/>
<path d="M18.8361 78.9527C18.4516 78.5899 18.1657 78.2322 17.9781 77.8798C17.7875 77.5307 17.6933 77.1724 17.6956 76.8048C17.6977 76.4307 17.8024 76.0409 18.0099 75.6351C18.2238 75.2291 18.5451 74.7991 18.9736 74.3451C19.4584 73.8313 20.0232 73.3524 20.668 72.9082C21.4172 72.3932 22.1619 72.0026 22.9021 71.7361C23.7636 71.4275 24.5662 71.3108 25.3098 71.386C26.1569 71.4711 26.8954 71.8108 27.5251 72.4051C28.0322 72.8837 28.3348 73.3698 28.4329 73.8634C28.5421 74.4051 28.3777 74.9079 27.9398 75.3719C27.6645 75.6636 27.4004 75.8373 27.1473 75.8929C26.8524 75.9531 26.5824 75.8674 26.3371 75.6359C26.2344 75.5389 26.1505 75.4253 26.0855 75.295C26.0237 75.1678 25.9983 75.0122 26.0091 74.8282C26.0969 74.8546 26.1987 74.863 26.3145 74.8532C26.4334 74.8401 26.555 74.8107 26.6794 74.7652C26.957 74.6637 27.1849 74.5185 27.3632 74.3296C27.5352 74.1473 27.6249 73.9593 27.6322 73.7657C27.6417 73.5365 27.5403 73.3218 27.3282 73.1216C27.1459 72.9496 26.9012 72.8471 26.594 72.8141C26.2932 72.7809 25.9459 72.8102 25.552 72.9022C25.1741 72.9906 24.7703 73.1296 24.3406 73.3193C23.9109 73.5091 23.4823 73.7375 23.0548 74.0045C22.6242 74.2749 22.2072 74.5707 21.8038 74.8918C21.4005 75.213 21.0393 75.5426 20.7202 75.8807C20.4825 76.1326 20.2927 76.3702 20.1509 76.5935C20.0123 76.8199 19.9236 77.0401 19.8847 77.254C19.7952 77.7273 19.9825 78.1829 20.4465 78.6208C20.8442 78.9961 21.2967 79.2571 21.8038 79.4036C22.3141 79.5468 22.8435 79.5702 23.392 79.4737L23.5271 79.7986C23.0913 80.0014 22.6433 80.1176 22.1832 80.147C21.7295 80.1762 21.285 80.1359 20.8498 80.026C20.4504 79.9247 20.077 79.7792 19.7298 79.5893C19.3826 79.3995 19.0847 79.1873 18.8361 78.9527ZM23.6192 82.8098C23.1783 82.51 22.9157 82.1303 22.8314 81.6707C22.7352 81.1314 22.9049 80.5413 23.3405 79.9007C23.525 79.6293 23.748 79.3621 24.0095 79.0991C24.2673 78.8334 24.5488 78.5895 24.8542 78.3673C25.5464 77.868 26.24 77.5571 26.9351 77.4345C27.7326 77.2989 28.4461 77.4451 29.0755 77.873C29.3883 78.0857 29.5848 78.2992 29.665 78.5135C29.7515 78.7267 29.7346 78.9218 29.6142 79.0989L29.5565 79.1837L30.0998 78.6521L31.7675 79.786L28.2614 83.1555C28.1506 83.2455 28.049 83.3583 27.9568 83.494C27.7313 83.8256 27.7768 84.0991 28.0934 84.3143C28.3045 84.4578 28.5697 84.4811 28.8891 84.3841C29.1591 84.3032 29.4539 84.1289 29.7736 83.8613L30.2598 84.1919C29.6528 84.6388 29.0857 84.9339 28.5586 85.077C28.1177 85.1905 27.6985 85.2031 27.3012 85.1148C27.0098 85.049 26.736 84.9289 26.4797 84.7547C26.1518 84.5317 25.9501 84.2651 25.8746 83.9547C25.8053 83.6431 25.8692 83.298 26.066 82.9193C25.6373 83.0797 25.2434 83.1646 24.8844 83.174C24.4216 83.19 23.9999 83.0686 23.6192 82.8098ZM25.1321 82.2017C25.2188 82.2606 25.3246 82.2995 25.4496 82.3184C25.5783 82.3398 25.7161 82.3397 25.8629 82.3183C26.1997 82.2607 26.5083 82.0986 26.7888 81.8319L29.1185 79.5969C29.1442 79.5592 29.1642 79.5094 29.1787 79.4476C29.1995 79.3846 29.2102 79.3202 29.2108 79.2545C29.1946 79.0837 29.1055 78.9432 28.9435 78.8331C28.789 78.728 28.6036 78.6764 28.3875 78.6782C28.1751 78.6826 27.9433 78.7317 27.6922 78.8255C27.2431 78.9996 26.7658 79.3005 26.26 79.7282C26.0333 79.9157 25.8249 80.1129 25.6346 80.3197C25.447 80.5228 25.2904 80.7167 25.1648 80.9013C24.9035 81.2857 24.7983 81.5945 24.8492 81.8275C24.8623 81.9136 24.8939 81.9847 24.944 82.0407C24.994 82.0968 25.0567 82.1505 25.1321 82.2017ZM36.8821 89.9496C36.3544 89.7119 36.0312 89.3864 35.9125 88.9731C35.8083 88.6163 35.847 88.2363 36.0285 87.8333C36.1146 87.6421 36.2376 87.4301 36.3975 87.1972C36.5615 86.9662 36.7811 86.6728 37.0564 86.3169C37.3354 85.9528 37.552 85.6605 37.7063 85.4401C37.8666 85.2174 37.9869 85.0167 38.0674 84.838C38.264 84.4017 38.2085 84.1143 37.901 83.9758C37.6849 83.8785 37.434 83.9029 37.1482 84.0491C36.9065 84.1751 36.6481 84.3937 36.3731 84.7046L33.6623 88.4094L31.8236 87.5812L34.7434 83.5957C34.8132 83.5072 34.8734 83.4068 34.9239 83.2946C35.0007 83.1243 35.0326 82.9812 35.0198 82.8655C34.9997 82.7215 34.9231 82.6195 34.7902 82.5596C34.5492 82.4511 34.2869 82.4729 34.0034 82.6251C33.7557 82.7534 33.4943 82.9731 33.2193 83.284L30.5084 86.9888L28.6698 86.1606L32.8971 80.3874L34.7358 81.2156L34.3011 81.8145C34.6758 81.6484 35.0369 81.5736 35.3843 81.5902C35.6563 81.6077 35.9232 81.6754 36.185 81.7934C36.5423 81.9543 36.7895 82.1656 36.9266 82.4273C37.0792 82.721 37.1036 83.0718 36.9997 83.4799C37.4649 83.1796 37.9155 83.0227 38.3514 83.0091C38.661 82.9986 38.9654 83.0608 39.2646 83.1955C39.6926 83.3883 39.9807 83.653 40.129 83.9897C40.2845 84.3546 40.2518 84.7823 40.0309 85.2726C39.9055 85.551 39.6805 85.912 39.3557 86.3555C39.2225 86.5404 39.08 86.7236 38.9282 86.9052C38.6446 87.2573 38.3938 87.5866 38.1757 87.8933C38.0639 88.0528 37.9836 88.1866 37.935 88.2946C37.8582 88.465 37.8357 88.6148 37.8675 88.7441C37.9053 88.871 38.0176 88.9766 38.2046 89.0609C38.4581 89.175 38.7189 89.1675 38.987 89.0384C39.1911 88.9404 39.457 88.7328 39.7848 88.4156L40.3208 88.657C39.5839 89.4497 38.8902 89.9245 38.2398 90.0814C37.7793 90.1938 37.3267 90.1499 36.8821 89.9496ZM42.52 84.0004L44.4652 84.5322L43.97 85.4882C44.5329 85.2263 45.1111 85.1765 45.7046 85.3387C46.2101 85.4769 46.5593 85.7377 46.7521 86.1212C46.9701 86.5682 46.9763 87.1675 46.7708 87.9192C46.5725 88.6446 46.294 89.3007 45.9351 89.8877C45.4798 90.6372 44.9688 91.1755 44.4022 91.5025C43.7057 91.9074 42.953 91.9993 42.1442 91.7782C41.832 91.6928 41.5881 91.5742 41.4123 91.4222C41.2777 91.3098 41.1831 91.1635 41.1284 90.9832L39.5299 94.0825L37.359 94.0134L42.52 84.0004ZM42.0496 90.4909C42.4848 90.6099 42.9192 90.49 43.3527 90.1313C43.6938 89.8513 44.025 89.4175 44.3463 88.8297C44.6032 88.3566 44.7995 87.8717 44.9353 87.3749C45.0567 86.931 45.0619 86.5922 44.9509 86.3587C44.8767 86.2156 44.7472 86.1188 44.5626 86.0683C44.3999 86.0238 44.2195 86.0359 44.0212 86.1045C43.8229 86.1732 43.6327 86.2984 43.4508 86.4801L41.62 90.0404C41.6267 90.1367 41.6635 90.227 41.7302 90.3114C41.8025 90.3926 41.9089 90.4524 42.0496 90.4909ZM47.7691 93.1147C47.3277 93.0471 46.9986 92.863 46.7818 92.5624C46.5377 92.2299 46.4581 91.7866 46.5429 91.2325C46.583 90.9713 46.6652 90.675 46.7898 90.3437L48.4091 86.0481L50.4025 86.3535L48.6887 90.9043C48.6403 91.0398 48.6067 91.1684 48.5881 91.29C48.5301 91.6684 48.6385 91.8786 48.9133 91.9207C49.1656 91.9594 49.4107 91.8793 49.6486 91.6807C49.8404 91.5118 50.0272 91.2407 50.2089 90.8675L51.8282 86.5719L53.8216 86.8773L52.1078 91.4281C52.0465 91.557 52.0035 91.7026 51.9786 91.8647C51.9497 92.0539 51.9744 92.1937 52.0527 92.2841C52.1311 92.3745 52.2694 92.4349 52.4676 92.4652C52.7243 92.5046 52.9717 92.4249 53.2096 92.2262C53.4208 92.0511 53.6098 91.7804 53.7766 91.414L54.3577 91.5031C54.0023 92.1678 53.6175 92.6783 53.2033 93.0344C52.8543 93.3267 52.4814 93.5185 52.0847 93.6099C51.7934 93.6759 51.4945 93.6855 51.1882 93.6385C50.7918 93.5778 50.4934 93.4191 50.293 93.1625C50.0925 92.9059 50.0007 92.5576 50.0174 92.1175C49.6247 92.5737 49.2137 92.8796 48.7841 93.0351C48.4768 93.1448 48.1385 93.1713 47.7691 93.1147ZM55.5038 94.11C55.167 94.0928 54.8714 94.0275 54.6171 93.9141C54.3631 93.7961 54.1519 93.6416 53.9837 93.4504C53.8285 93.2736 53.7152 93.0808 53.6437 92.8718C53.5725 92.6582 53.5426 92.4399 53.554 92.2169C53.5697 91.912 53.6611 91.6406 53.8284 91.4027C53.9762 91.1912 54.1549 91.0429 54.3646 90.9579C54.7618 90.3302 55.1116 89.691 55.4142 89.0402C55.7167 88.3895 56.011 87.6767 56.2971 86.9019L58.3796 86.7347C58.3737 87.9209 58.3773 88.8314 58.3904 89.4664C58.4026 90.1195 58.4168 90.5994 58.4331 90.906C58.4422 91.2624 58.4401 91.5726 58.4265 91.8366C58.4144 92.0732 58.3871 92.2498 58.3447 92.3663C58.776 92.1419 59.1225 91.9247 59.3842 91.7145L59.9714 91.7445C59.6193 92.1144 59.2587 92.429 58.8895 92.6885C58.5248 92.9482 58.1433 93.1796 57.745 93.3828C57.4525 93.6599 57.0933 93.8583 56.6673 93.9779C56.2967 94.0867 55.9088 94.1308 55.5038 94.11ZM55.1166 92.9814C55.4671 92.9993 55.7519 92.918 55.971 92.7376C56.233 92.5229 56.3754 92.1925 56.3982 91.7464C56.4078 91.5598 56.4084 91.3248 56.4001 91.0415L56.3873 90.6233C56.3647 90.2617 56.3451 89.8431 56.3283 89.3677L56.3014 88.4217C56.1478 88.8382 55.9692 89.2512 55.7657 89.6606C55.5625 90.0654 55.3182 90.5138 55.0329 91.0058C55.2408 91.135 55.3395 91.3021 55.329 91.5069C55.3197 91.6889 55.257 91.8432 55.141 91.9696C55.0152 92.1092 54.8613 92.1743 54.6793 92.165C54.5882 92.1603 54.5115 92.145 54.4489 92.119C54.3911 92.0886 54.3459 92.0361 54.3132 91.9614C54.296 92.2982 54.3493 92.5496 54.4731 92.7157C54.5972 92.8772 54.8117 92.9658 55.1166 92.9814ZM66.4054 94.0558C65.8793 94.1077 65.4218 94.0887 65.0328 93.9989C64.6443 93.9136 64.3122 93.7494 64.0363 93.5065C63.7555 93.2594 63.5301 92.9245 63.3601 92.5016C63.1943 92.0738 63.0807 91.5492 63.0194 90.9278C62.95 90.2249 62.9594 89.4844 63.0475 88.7063C63.1507 87.8032 63.3447 86.9849 63.6295 86.2516C63.9621 85.399 64.4008 84.7169 64.9457 84.2052C65.5659 83.622 66.3068 83.2878 67.1685 83.2028C67.8624 83.1343 68.4278 83.2251 68.8646 83.475C69.3449 83.7482 69.6164 84.2023 69.6791 84.8372C69.7184 85.2363 69.6761 85.5496 69.552 85.7771C69.4038 86.039 69.1619 86.1865 68.8263 86.2196C68.6857 86.2335 68.5449 86.2222 68.404 86.1857C68.2675 86.1488 68.1334 86.0659 68.0016 85.9369C68.0792 85.8881 68.1523 85.8167 68.2209 85.7229C68.2891 85.6246 68.3468 85.5136 68.3941 85.3899C68.4997 85.1139 68.5397 84.8466 68.5142 84.5881C68.4896 84.3386 68.4066 84.1476 68.2653 84.015C68.0986 83.8574 67.8702 83.793 67.5799 83.8216C67.3305 83.8462 67.0925 83.9636 66.8659 84.1737C66.6435 84.3788 66.4377 84.6602 66.2486 85.0177C66.0672 85.3608 65.907 85.7566 65.7681 86.2054C65.6293 86.6542 65.5203 87.1274 65.4412 87.6252C65.3625 88.1276 65.3119 88.6363 65.2895 89.1514C65.2671 89.6665 65.2787 90.1554 65.3243 90.618C65.3583 90.9626 65.413 91.2618 65.4884 91.5154C65.5684 91.7685 65.6762 91.98 65.8121 92.1497C66.1104 92.5279 66.577 92.6856 67.212 92.623C67.7562 92.5693 68.25 92.3992 68.6934 92.1127C69.1364 91.8217 69.5015 91.4376 69.7887 90.9605L70.1225 91.0718C69.9895 91.5337 69.7831 91.9479 69.5033 92.3144C69.2276 92.6759 68.9054 92.9848 68.5369 93.241C68.1983 93.4759 67.8434 93.662 67.4723 93.7994C67.1012 93.9367 66.7456 94.0222 66.4054 94.0558ZM72.5675 93.0208C71.8897 93.1635 71.331 93.1087 70.8914 92.8566C70.3997 92.5782 70.0754 92.0666 69.9187 91.3219C69.8596 91.0409 69.8233 90.7249 69.81 90.3738C69.7957 90.0182 69.8122 89.6538 69.8594 89.2806C69.9613 88.3929 70.2166 87.6476 70.6253 87.0447C71.1175 86.3077 71.7918 85.8491 72.648 85.6689C73.8209 85.4221 74.5608 86.0278 74.8677 87.4861L74.8705 87.4995C74.8991 87.5028 74.9224 87.5026 74.9402 87.4988L75.0205 87.4819C75.3237 87.4181 75.6649 87.2578 76.044 87.0011C76.3777 86.7725 76.6835 86.5102 76.9612 86.2142L77.1604 86.5635C76.952 86.9008 76.6565 87.2121 76.2742 87.4975C75.8963 87.7819 75.462 88.02 74.9715 88.2117C75.0484 88.8429 75.0472 89.4346 74.9678 89.9869C74.8875 90.5347 74.7387 91.0224 74.5213 91.45C74.3065 91.8678 74.032 92.212 73.6977 92.4826C73.3635 92.7532 72.9867 92.9326 72.5675 93.0208ZM72.857 91.6745C73.0176 91.6407 73.1653 91.5351 73.3003 91.3577C73.4388 91.1749 73.5544 90.9386 73.6472 90.649C73.7399 90.3594 73.8032 90.0294 73.837 89.659C73.8708 89.2886 73.8727 88.8994 73.8427 88.4912C73.7014 88.4837 73.5915 88.437 73.5128 88.351C73.4387 88.2642 73.3856 88.145 73.3537 87.9933C73.3143 87.806 73.3194 87.642 73.3689 87.5011C73.4184 87.3603 73.504 87.2468 73.6256 87.1607C73.5468 86.8746 73.4563 86.6771 73.3542 86.5682C73.3009 86.5142 73.2402 86.4804 73.1722 86.4668C73.1086 86.4522 73.0299 86.4548 72.9363 86.4745C72.6286 86.5392 72.3764 86.8345 72.1796 87.3602C71.9958 87.8367 71.8817 88.4009 71.8373 89.053C71.7945 89.6907 71.8224 90.2436 71.921 90.7119C71.9688 90.9393 72.0189 91.1221 72.0713 91.2601C72.128 91.3972 72.1939 91.4997 72.2687 91.5678C72.3392 91.6368 72.4205 91.6802 72.5127 91.6981C72.604 91.7115 72.7188 91.7036 72.857 91.6745ZM81.9684 90.4473C81.4193 90.6302 80.961 90.6099 80.5936 90.3865C80.2751 90.1947 80.0461 89.8891 79.9064 89.4697C79.8401 89.2708 79.7869 89.0316 79.7466 88.752C79.7106 88.471 79.6732 88.1064 79.6344 87.6582C79.5927 87.2013 79.5539 86.8396 79.518 86.5729C79.4849 86.3006 79.4374 86.0714 79.3754 85.8855C79.2242 85.4315 78.9887 85.2578 78.6687 85.3643C78.4439 85.4392 78.2759 85.6273 78.1649 85.9284C78.0726 86.1849 78.0307 86.5207 78.0393 86.9358L78.557 91.4971L76.6437 92.1344L75.8391 85.0243L77.7524 84.387L77.8387 85.122C78.0016 84.7459 78.2128 84.4498 78.4722 84.2337C78.664 84.0738 78.8874 83.9514 79.1425 83.8664C79.5921 83.7166 79.9856 83.7153 80.3228 83.8624C80.6844 84.0253 80.9503 84.3619 81.1202 84.8721C81.2224 85.179 81.2994 85.5977 81.3512 86.1281C81.3685 86.2808 81.39 86.5114 81.4159 86.8198C81.4503 87.3415 81.487 87.7544 81.5258 88.0585C81.5517 88.2516 81.5834 88.4044 81.6208 88.5168C81.6799 88.6941 81.7649 88.8195 81.8758 88.893C81.9897 88.9608 82.1439 88.9623 82.3384 88.8975C82.6022 88.8096 82.7889 88.6274 82.8985 88.3507C82.9821 88.1403 83.0369 87.8074 83.063 87.352L83.6207 87.1662C83.6162 88.2485 83.4279 89.0678 83.056 89.624C82.7936 90.0188 82.4311 90.2932 81.9684 90.4473ZM89.0612 87.3487C88.5404 87.6011 88.0833 87.6403 87.6901 87.4663C87.3495 87.3174 87.0828 87.044 86.89 86.6462C86.7986 86.4576 86.7148 86.2272 86.6387 85.9552C86.5666 85.6812 86.4824 85.3245 86.3859 84.885C86.2854 84.4374 86.2001 84.0838 86.13 83.824C86.0619 83.5582 85.9851 83.3371 85.8997 83.1608C85.691 82.7302 85.4349 82.5884 85.1314 82.7355C84.9182 82.8389 84.776 83.047 84.7049 83.3601C84.6465 83.6263 84.6485 83.9647 84.7107 84.3752L85.8143 88.8311L83.9996 89.7106L82.2816 82.7645L84.0963 81.885L84.277 82.6027C84.3899 82.2086 84.561 81.8877 84.7903 81.6398C84.9597 81.4564 85.1654 81.3061 85.4074 81.1888C85.8339 80.9821 86.2238 80.9299 86.5772 81.0321C86.9569 81.1468 87.2641 81.4462 87.4986 81.9301C87.6397 82.2213 87.7703 82.6265 87.8902 83.1457C87.9271 83.2949 87.9783 83.5208 88.0439 83.8232C88.1456 84.3361 88.2353 84.7408 88.3132 85.0373C88.3639 85.2254 88.4151 85.3728 88.4667 85.4794C88.5482 85.6476 88.6487 85.7609 88.7683 85.8195C88.8899 85.8719 89.043 85.8534 89.2276 85.764C89.4777 85.6427 89.6392 85.4379 89.7121 85.1493C89.7678 84.9299 89.7791 84.5927 89.746 84.1378L90.275 83.8814C90.4106 84.9552 90.3299 85.7919 90.0331 86.3915C89.824 86.817 89.5 87.136 89.0612 87.3487ZM93.1145 85.0727C92.5359 85.4453 91.9958 85.5872 91.4941 85.4984C90.9609 85.4027 90.487 85.0331 90.0724 84.3894C89.9169 84.148 89.7691 83.8638 89.6289 83.5367C89.4849 83.212 89.3657 82.8714 89.2715 82.5147C89.1666 82.1161 89.1015 81.7162 89.0762 81.3151C89.0548 80.9115 89.0824 80.5251 89.159 80.1559C89.3368 79.3042 89.8012 78.6365 90.5521 78.1528C91.031 77.8444 91.4537 77.7348 91.8202 77.824C92.1047 77.8955 92.3568 78.1017 92.5765 78.4427C92.7911 78.776 92.9207 79.1371 92.9651 79.5259C93.0071 79.9108 92.9725 80.299 92.8614 80.6904C92.7478 81.078 92.5714 81.4437 92.3321 81.7875C92.0903 82.1275 91.8025 82.4213 91.4687 82.6689C91.5778 82.8804 91.6694 83.0437 91.7434 83.1586C91.9902 83.5418 92.2333 83.7592 92.4726 83.8111C92.683 83.8599 92.9357 83.7893 93.2307 83.5993C93.656 83.3254 93.9708 82.96 94.1752 82.5031C94.263 82.311 94.3338 82.1055 94.3879 81.8864C94.4394 81.6634 94.4918 81.3912 94.5449 81.0697L94.9472 80.8106C94.9802 81.6783 94.8751 82.4534 94.6317 83.136C94.329 83.9706 93.8233 84.6162 93.1145 85.0727ZM91.1979 82.0464C91.4064 81.8904 91.5783 81.6903 91.7136 81.4459C91.849 81.2015 91.9391 80.9375 91.984 80.6538C92.0265 80.3662 92.0209 80.0798 91.9673 79.7945C91.9112 79.5054 91.8066 79.2421 91.6536 79.0046C91.5524 78.8475 91.453 78.7435 91.3552 78.6927C91.2587 78.6355 91.1569 78.6415 91.0496 78.7106C90.9078 78.8019 90.8086 78.9634 90.7518 79.1951C90.6989 79.4243 90.6831 79.7028 90.7045 80.0306C90.7275 80.3356 90.7817 80.6638 90.8672 81.0154C90.9526 81.3669 91.0628 81.7106 91.1979 82.0464ZM97.9945 81.6068C97.4636 82.0446 96.9438 82.2489 96.4352 82.2194C95.8944 82.1869 95.3805 81.8754 94.8933 81.2847C94.7106 81.0632 94.5305 80.7983 94.3529 80.4899C94.1689 80.1808 94.011 79.8533 93.8791 79.5072C93.5513 78.6729 93.4234 77.8982 93.4953 77.1832C93.5861 76.3049 93.9637 75.5917 94.6282 75.0436C95.0606 74.687 95.4661 74.5268 95.8446 74.5631C96.1426 74.595 96.4105 74.7551 96.6483 75.0434C96.8571 75.2965 96.9632 75.5398 96.9667 75.7732C96.9685 75.9903 96.8868 76.1669 96.7216 76.3032C96.602 76.4018 96.4407 76.464 96.2375 76.4898C96.1369 76.1888 96.0054 75.9399 95.843 75.743C95.7299 75.6059 95.6151 75.5204 95.4986 75.4865C95.3827 75.4463 95.2755 75.4667 95.1771 75.5479C94.9661 75.7219 94.9001 76.0895 94.9789 76.6506C95.0441 77.1522 95.2183 77.7144 95.5017 78.3373C95.7728 78.9525 96.0751 79.4623 96.4086 79.8666C96.6985 80.2182 96.9654 80.4057 97.2092 80.4291C97.4238 80.4529 97.6665 80.3532 97.9372 80.1299C98.3274 79.808 98.5973 79.4082 98.7468 78.9305C98.8114 78.7295 98.8577 78.5171 98.8857 78.2932C98.9107 78.0657 98.9308 77.7892 98.9459 77.4637L99.315 77.1592C99.4496 78.0171 99.436 78.7992 99.2743 79.5056C99.0715 80.3699 98.6449 81.0703 97.9945 81.6068ZM101.969 78.1073C101.656 78.4253 101.314 78.5841 100.943 78.5835C100.531 78.5864 100.125 78.3911 99.7256 77.9976C99.5374 77.812 99.3455 77.5717 99.1501 77.2766L96.9412 73.9183L96.6149 74.2494L96.2973 73.7731L96.6188 73.4469L95.5387 71.7869L96.7932 70.1151L98.0346 72.0108L98.6249 71.4121L98.9473 71.8835L98.357 72.4823L100.717 76.0666C100.776 76.1758 100.87 76.2944 101 76.4223C101.136 76.5567 101.263 76.6203 101.379 76.613C101.498 76.6025 101.628 76.5258 101.768 76.383C101.864 76.2857 101.936 76.1707 101.984 76.0383C102.031 75.8994 102.054 75.7526 102.053 75.5979C102.051 75.2821 101.958 74.9541 101.775 74.6138L102.188 74.1951C102.515 74.8695 102.695 75.4886 102.728 76.0523C102.748 76.5194 102.67 76.9486 102.496 77.3398C102.369 77.6243 102.193 77.8801 101.969 78.1073Z" fill="#031927"/>
<path d="M42.2529 35.6367C45.7627 34.6772 49.4734 34.8063 52.8965 35.9932L49.3955 44.5234C47.8596 44.0894 46.2284 44.0778 44.6767 44.502C42.8012 45.0147 41.1479 46.1331 39.9746 47.6836C38.8013 49.2342 38.174 51.1298 38.1904 53.0742C38.2069 55.0187 38.866 56.904 40.0654 58.4346C41.2648 59.965 42.9373 61.0552 44.8213 61.5361C46.7053 62.017 48.6953 61.8612 50.4814 61.0928C52.2677 60.3243 53.7498 58.9868 54.6963 57.2881C55.0974 56.5682 55.739 55.4853 56.2334 54.3848C56.5679 53.6401 56.8884 52.7739 56.9912 51.9219L64.916 51.2754C65.2654 54.9046 64.5062 58.5629 62.7246 61.7607C60.7909 65.2313 57.7628 67.9651 54.1133 69.5352C50.4638 71.1051 46.3972 71.4231 42.5478 70.4404C38.6985 69.4578 35.2824 67.2295 32.832 64.1025C30.3815 60.9754 29.0346 57.1251 29.001 53.1524C28.9673 49.1796 30.2483 45.3069 32.6455 42.1387C35.0426 38.9706 38.4208 36.6844 42.2529 35.6367Z" fill="#508AA8" stroke="#001021" stroke-width="2"/>
<mask id="path-4-inside-1_5_9" fill="white">
<path d="M81.2121 35.422C77.4641 33.8843 73.3228 33.5847 69.3925 34.5671C65.4623 35.5495 61.9489 37.7624 59.3653 40.8828C56.7817 44.0032 55.2631 47.8677 55.0312 51.9122C54.7992 55.9568 55.8661 59.9695 58.0761 63.3648C60.2861 66.7601 63.5234 69.3601 67.3156 70.7854C71.1078 72.2106 75.2562 72.3864 79.1554 71.2872C83.0546 70.188 86.5003 67.8712 88.9897 64.6751C91.4791 61.479 92.8817 57.5709 92.9928 53.5213L81.8073 53.2143C81.7616 54.879 81.185 56.4855 80.1618 57.7993C79.1385 59.1131 77.722 60.0654 76.1192 60.5173C74.5164 60.9691 72.8111 60.8968 71.2523 60.311C69.6934 59.7251 68.3627 58.6563 67.4542 57.2606C66.5458 55.8649 66.1072 54.2154 66.2026 52.5529C66.2979 50.8903 66.9221 49.3017 67.9842 48.019C69.0462 46.7364 70.4904 45.8267 72.106 45.4229C73.7216 45.019 75.424 45.1422 76.9646 45.7743L81.2121 35.422Z"/>
</mask>
<path d="M81.2121 35.422C77.4641 33.8843 73.3228 33.5847 69.3925 34.5671C65.4623 35.5495 61.9489 37.7624 59.3653 40.8828C56.7817 44.0032 55.2631 47.8677 55.0312 51.9122C54.7992 55.9568 55.8661 59.9695 58.0761 63.3648C60.2861 66.7601 63.5234 69.3601 67.3156 70.7854C71.1078 72.2106 75.2562 72.3864 79.1554 71.2872C83.0546 70.188 86.5003 67.8712 88.9897 64.6751C91.4791 61.479 92.8817 57.5709 92.9928 53.5213L81.8073 53.2143C81.7616 54.879 81.185 56.4855 80.1618 57.7993C79.1385 59.1131 77.722 60.0654 76.1192 60.5173C74.5164 60.9691 72.8111 60.8968 71.2523 60.311C69.6934 59.7251 68.3627 58.6563 67.4542 57.2606C66.5458 55.8649 66.1072 54.2154 66.2026 52.5529C66.2979 50.8903 66.9221 49.3017 67.9842 48.019C69.0462 46.7364 70.4904 45.8267 72.106 45.4229C73.7216 45.019 75.424 45.1422 76.9646 45.7743L81.2121 35.422Z" fill="#508AA8" stroke="#001021" stroke-width="4" mask="url(#path-4-inside-1_5_9)"/>
</svg>
